<svg width="80" height="82" viewBox="0 0 80 82" fill="none" xmlns="http://www.w3.org/2000/svg">
<path d="M69.6968 0.764526H10.3035C5.02157 0.764526 0.724609 5.06149 0.724609 10.3434V71.6528C0.724609 76.9348 5.02157 81.2317 10.3035 81.2317H69.6987C74.9806 81.2317 79.2776 76.9348 79.2776 71.6528V41C79.2776 39.9421 78.4193 39.0839 77.3614 39.0839C76.3035 39.0839 75.4452 39.9421 75.4452 41V71.6548C75.4452 74.8247 72.8667 77.4033 69.6968 77.4033H10.3035C7.13357 77.4033 4.55501 74.8247 4.55501 71.6548V10.3453C4.55501 7.17541 7.13357 4.59685 10.3035 4.59685H69.6987C72.8686 4.59685 75.4472 7.17541 75.4472 10.3453V14.0567C75.4472 14.1181 75.4452 14.1815 75.4452 14.2429C75.4107 16.52 73.604 21.5658 70.676 24.7607C60.6286 35.7239 38.0417 39.0704 37.8152 39.1031C36.8206 39.2452 36.1025 40.1322 36.1755 41.1364C36.21 41.6196 36.4262 42.0718 36.7806 42.402C37.1351 42.7323 37.6014 42.916 38.0859 42.9162C40.9601 42.9162 43.6462 44.0528 45.6488 46.1168C47.6494 48.1789 48.7054 50.9015 48.619 53.7796C48.427 60.1501 44.6024 63.7521 37.8228 63.9805C37.5924 63.9844 37.364 63.9921 37.1297 63.9921H16.0501C13.2315 63.9921 9.66221 65.601 8.48525 69.1338C8.15117 70.138 8.69261 71.2228 9.69677 71.5569C10.7009 71.8909 11.7857 71.3495 12.1198 70.3453C12.7361 68.4945 14.8078 67.8225 16.0501 67.8225H37.1259C51.6584 67.8225 59.6187 59.6797 65.492 51.7156C68.8885 47.1076 79.2008 33.1185 79.2757 14.2621C79.2757 14.2333 79.2776 14.2045 79.2776 14.1757V10.3453C79.2776 5.06341 74.9787 0.764526 69.6968 0.764526ZM62.4065 49.4423C59.2673 53.7009 55.7 57.7789 50.8942 60.5284C51.8369 58.6372 52.3707 56.4119 52.4475 53.8928C52.5646 49.9684 51.1265 46.2589 48.3982 43.4461C47.6353 42.6597 46.7865 41.9616 45.8676 41.3648C53.8625 39.3796 66.3022 35.2016 73.5003 27.3488C73.5598 27.2855 73.6174 27.2183 73.675 27.153C70.6952 38.2026 64.7758 46.2321 62.4065 49.4423Z" fill="black"/>
</svg>
