<svg width="96" height="82" viewBox="0 0 96 82" fill="none" xmlns="http://www.w3.org/2000/svg">
<path d="M68.7175 3.97557C63.8585 -0.602887 55.5323 -1.64781 48 5.8845C40.4788 -1.64043 32.1415 -0.602887 27.2825 3.97188C21.6222 9.29988 21.5225 18.2131 26.9797 23.6703L48 44.6943L69.0203 23.674C74.4775 18.2168 74.3778 9.30357 68.7175 3.97557ZM66.4098 21.0599L48 39.4734L29.5902 21.0636C25.5951 17.0648 25.6726 10.5627 29.8154 6.66357C31.5803 4.99465 33.9434 4.07896 36.4689 4.07896C41.7563 4.07896 44.1342 7.23958 48 11.1054C51.7625 7.34296 54.1846 4.07896 59.5311 4.07896C62.0566 4.07896 64.4197 4.99465 66.1883 6.65988C70.32 10.5516 70.416 17.0537 66.4098 21.0599ZM89.6898 4.07896C86.4369 4.07896 83.7378 6.51588 83.4129 9.75034L81.0757 32.831C79.9495 33.071 78.9157 33.6174 78.1145 34.4187L59.4646 51.7799C56.8985 54.1171 55.4105 57.4513 55.3846 60.9368V81.6174H77.5385V71.8845C77.5385 70.3817 78.1699 68.9196 79.3145 67.834L93.3268 53.6925C95.0511 51.9497 96 49.642 96 47.194V10.3891C96 6.91096 93.168 4.07896 89.6898 4.07896ZM92.3077 47.194C92.3077 48.6636 91.7391 50.0482 90.7015 51.0968L76.7335 65.194C74.8985 66.9294 73.8462 69.3663 73.8462 71.8845V77.9251H59.0769V60.959C59.0954 58.511 60.1403 56.1663 61.968 54.5048L80.6769 37.0808C81.1791 36.5787 81.8658 36.3313 82.5932 36.4051C82.9957 36.442 83.5754 36.586 84.0702 37.0808C84.294 37.3034 84.4715 37.568 84.5925 37.8595C84.7136 38.151 84.7757 38.4636 84.7754 38.7793C84.7754 39.418 84.5206 40.0236 84.1329 40.415L69.7292 53.4783L72.2105 56.2107L86.6806 43.0845C87.8326 41.9325 88.4677 40.4039 88.4677 38.7756C88.4677 37.1473 87.8363 35.6187 86.6843 34.4703C86.1338 33.9117 85.4773 33.4685 84.7532 33.167L87.0831 10.127C87.1472 9.4806 87.4497 8.88126 87.9316 8.44577C88.4135 8.01027 89.0403 7.76982 89.6898 7.77127C91.1335 7.77127 92.3077 8.94542 92.3077 10.3891V47.194ZM36.5354 51.7799L17.8855 34.4187C17.0843 33.6174 16.0505 33.0673 14.9243 32.831L12.5871 9.75034C12.2622 6.51588 9.56308 4.07896 6.31015 4.07896C2.832 4.07896 0 6.91096 0 10.3891V47.194C0 49.642 0.948923 51.9497 2.67323 53.6888L16.6855 67.8304C17.8302 68.9159 18.4615 70.3817 18.4615 71.8845V81.6174H40.6154V60.9368C40.5932 57.4513 39.1015 54.1208 36.5354 51.7799ZM36.9231 77.9251H22.1538V71.8845C22.1538 69.37 21.1015 66.9294 19.2665 65.194L5.29846 51.0968C4.26092 50.0482 3.69231 48.6636 3.69231 47.194V10.3891C3.69231 8.94542 4.86646 7.77127 6.31015 7.77127C7.65785 7.77127 8.78031 8.78296 8.91692 10.1196L11.2468 33.1596C10.5242 33.4639 9.86816 33.9066 9.31569 34.463C8.16739 35.6113 7.53231 37.1399 7.53231 38.7682C7.53231 40.3965 8.16738 41.9251 9.31938 43.0771L23.7895 56.2033L26.2708 53.471L11.8671 40.4076C11.4757 40.0162 11.2246 39.4143 11.2246 38.7719C11.2246 38.1294 11.4757 37.5276 11.9298 37.0734C12.4209 36.5787 13.0043 36.4347 13.4068 36.3977C14.1378 36.3276 14.8209 36.5713 15.3231 37.0734L34.032 54.4974C35.8597 56.159 36.9046 58.5036 36.9231 60.9516V77.9251Z" fill="black"/>
</svg>
