<svg class="icon icon-twitter" width="16" height="16" viewBox="0 0 16 16" fill="none" xmlns="http://www.w3.org/2000/svg">
<path d="M13.6691 5.7383C13.6767 5.85732 13.6767 5.97691 13.6767 6.09706C13.6767 9.76761 10.9933 14 6.08796 14V13.9977C4.639 14 3.21983 13.5679 2 12.7528C2.21071 12.7793 2.4225 12.7923 2.63483 12.7928C3.83625 12.794 5.003 12.3743 5.94713 11.6015C4.80583 11.5789 3.80483 10.8039 3.45546 9.67228C3.85521 9.75238 4.26687 9.73602 4.65958 9.6249C3.41483 9.36316 2.52 8.22425 2.52 6.90202C2.52 6.89018 2.52 6.87833 2.52 6.86705C2.89104 7.08253 3.30596 7.20155 3.73063 7.21453C2.55846 6.39941 2.19662 4.77596 2.90458 3.50675C4.25875 5.2419 6.25696 6.29675 8.40142 6.409C8.18638 5.44441 8.4805 4.43355 9.17275 3.75495C10.2469 2.70292 11.9363 2.75707 12.9465 3.87566C13.544 3.75326 14.1165 3.5248 14.6403 3.20157C14.441 3.84464 14.0245 4.39068 13.4676 4.73816C13.9968 4.67216 14.513 4.52493 15 4.30043C14.642 4.85831 14.1913 5.34513 13.6691 5.7383Z" fill="currentColor"/>
</svg>
