
<svg class="icon icon-flash" width="48" height="48" viewBox="0 0 48 48" fill="none" xmlns="http://www.w3.org/2000/svg">
<g clip-path="url(#clip0_2327_4465)">
<path d="M18.8903 48C18.7036 48 18.5146 47.9627 18.334 47.8848C18.028 47.7528 17.7789 47.5165 17.6309 47.2179C17.483 46.9193 17.4458 46.5779 17.5262 46.2545L22.2815 27.1129H9.46878C9.24032 27.1129 9.0153 27.0572 8.81319 26.9507C8.61107 26.8442 8.43795 26.6901 8.30879 26.5016C8.17964 26.3132 8.09834 26.0961 8.07193 25.8692C8.04552 25.6423 8.07479 25.4123 8.15722 25.1992L17.5567 0.898965C17.6591 0.634286 17.8391 0.406771 18.0732 0.246324C18.3073 0.0858768 18.5844 6.61364e-06 18.8682 0L31.802 0C32.2772 0 32.7203 0.239999 32.98 0.63806C33.1077 0.834001 33.1846 1.05871 33.2036 1.29185C33.2226 1.52498 33.1832 1.75918 33.0889 1.97324L27.5231 14.6069H38.5312C38.7837 14.6069 39.0315 14.6749 39.2486 14.8038C39.4658 14.9326 39.6443 15.1175 39.7653 15.3391C39.8863 15.5607 39.9455 15.8108 39.9365 16.0631C39.9276 16.3154 39.8508 16.5607 39.7144 16.7731L20.0742 47.3535C19.9469 47.5518 19.7717 47.715 19.5648 47.828C19.358 47.9409 19.126 48.0001 18.8903 48ZM11.5205 24.3005H24.0798C24.2934 24.3005 24.5041 24.3491 24.696 24.4427C24.8879 24.5363 25.056 24.6723 25.1876 24.8405C25.3191 25.0087 25.4106 25.2047 25.4551 25.4135C25.4996 25.6224 25.496 25.8386 25.4446 26.0458L22.3083 38.6705L35.9567 17.4193H25.3668C25.1329 17.4193 24.9027 17.361 24.6971 17.2496C24.4914 17.1382 24.3168 16.9772 24.189 16.7813C24.0612 16.5854 23.9843 16.3607 23.9653 16.1276C23.9462 15.8944 23.9856 15.6602 24.0799 15.4462L29.6459 2.81249H19.832L11.5205 24.3005Z" fill="#FF3E3E"></path>
</g>
<defs>
<clipPath id="clip0_2327_4465">
<rect width="48" height="48" fill="white"></rect>
</clipPath>
</defs>
</svg>