<svg class="icon icon-note" width="25" height="24" viewBox="0 0 25 24" fill="none" xmlns="http://www.w3.org/2000/svg">
                        <path d="M16.75 2H8.75C5.441 2 2.75 4.691 2.75 8V21C2.75 21.553 3.197 22 3.75 22H16.75C20.059 22 22.75 19.309 22.75 16V8C22.75 4.691 20.059 2 16.75 2ZM20.75 16C20.75 18.206 18.956 20 16.75 20H4.75V8C4.75 5.794 6.544 4 8.75 4H16.75C18.956 4 20.75 5.794 20.75 8V16Z" fill="black"></path>
                        <path d="M7.75 9H17.75V11H7.75V9ZM7.75 13H14.75V15H7.75V13Z" fill="black"></path>
                     </svg>