  <svg class="icon icon-parcel" width="25" height="24" viewBox="0 0 25 24" fill="none" xmlns="http://www.w3.org/2000/svg">
                        <path d="M22.743 7.95003C22.74 7.87803 22.733 7.80503 22.714 7.73603C22.707 7.71103 22.693 7.68703 22.684 7.66203C22.663 7.60503 22.644 7.54903 22.614 7.49703C22.598 7.47003 22.576 7.44803 22.557 7.42203C22.525 7.37703 22.494 7.33103 22.455 7.29203C22.432 7.27003 22.402 7.25203 22.377 7.23103C22.338 7.19903 22.302 7.16403 22.257 7.13703C22.253 7.13403 22.248 7.13403 22.243 7.13103C22.24 7.12903 22.238 7.12703 22.235 7.12503L13.256 2.13503C12.955 1.96703 12.589 1.96803 12.286 2.13403L3.265 7.12403C3.262 7.12703 3.259 7.13103 3.254 7.13403C3.251 7.13503 3.247 7.13603 3.244 7.13803C3.209 7.15803 3.183 7.18703 3.15 7.21103C3.114 7.23803 3.076 7.26203 3.044 7.29303C3.014 7.32403 2.991 7.36003 2.965 7.39503C2.938 7.43003 2.908 7.46103 2.886 7.49903C2.86 7.54203 2.846 7.59103 2.827 7.63803C2.813 7.67103 2.795 7.70203 2.786 7.73803C2.767 7.80503 2.761 7.87703 2.757 7.94803C2.756 7.96503 2.75 7.98003 2.75 7.99803V7.99903V8.00003V16C2.75 16.363 2.947 16.698 3.265 16.874L12.243 21.861L12.244 21.862C12.245 21.862 12.245 21.862 12.246 21.863L12.266 21.874C12.309 21.898 12.356 21.911 12.401 21.928C12.433 21.941 12.464 21.958 12.498 21.967C12.579 21.988 12.665 22 12.75 22C12.835 22 12.921 21.988 13.004 21.967C13.037 21.958 13.068 21.941 13.101 21.928C13.146 21.911 13.193 21.899 13.236 21.874L13.256 21.863C13.257 21.862 13.257 21.862 13.258 21.862L13.259 21.861L22.237 16.874C22.553 16.698 22.75 16.363 22.75 16V8.00003V7.99903V7.99803C22.75 7.98103 22.744 7.96703 22.743 7.95003ZM12.722 11.872L5.808 8.00503L8.57 6.47703L15.404 10.382L12.722 11.872ZM12.77 4.15303L19.691 8.00003L17.447 9.24703L10.617 5.34403L12.77 4.15303ZM4.75 9.70503L11.75 13.621V19.301L4.75 15.411V9.70503ZM13.75 19.301L13.752 13.622L16.75 11.944V15L18.75 14V10.825L20.75 9.70603V15.411L13.75 19.301Z" fill="currentColor"></path>
                     </svg>