<svg width="88" height="88" viewBox="0 0 88 88" fill="none" xmlns="http://www.w3.org/2000/svg">
<path d="M43.9963 27.0488C34.6317 27.0488 27.0453 34.6388 27.0453 43.9998C27.0453 53.3645 34.6317 60.9545 43.9963 60.9545C53.3537 60.9545 60.9474 53.3645 60.9474 43.9998C60.9474 34.6388 53.3537 27.0488 43.9963 27.0488ZM43.9963 55.0145C37.9133 55.0145 32.9817 50.0828 32.9817 44.0035C32.9817 37.9205 37.9133 32.9925 43.9963 32.9925C50.0793 32.9925 55.0037 37.9205 55.0037 44.0035C55.0037 50.0828 50.0793 55.0145 43.9963 55.0145Z" fill="white"/>
<path d="M61.622 30.378C63.805 30.378 65.5746 28.6083 65.5746 26.4253C65.5746 24.2423 63.805 22.4727 61.622 22.4727C59.439 22.4727 57.6693 24.2423 57.6693 26.4253C57.6693 28.6083 59.439 30.378 61.622 30.378Z" fill="white"/>
<path d="M75.2877 22.4072C73.568 17.9742 70.0663 14.4689 65.6333 12.7566C63.0703 11.7922 60.3607 11.2752 57.618 11.2166C54.087 11.0626 52.9687 11.0186 44.0147 11.0186C35.0607 11.0186 33.913 11.0186 30.4113 11.2166C27.676 11.2716 24.9663 11.7886 22.4033 12.7566C17.9667 14.4689 14.465 17.9742 12.749 22.4072C11.7847 24.9739 11.2677 27.6799 11.2127 30.4226C11.055 33.9499 11.0073 35.0682 11.0073 44.0259C11.0073 52.9799 11.0073 54.1202 11.2127 57.6292C11.2677 60.3719 11.7847 63.0779 12.749 65.6482C14.4687 70.0776 17.9703 73.5829 22.407 75.2989C24.959 76.2962 27.6687 76.8609 30.4187 76.9489C33.9497 77.1029 35.068 77.1506 44.022 77.1506C52.976 77.1506 54.1237 77.1506 57.6253 76.9489C60.3643 76.8939 63.074 76.3732 65.6407 75.4126C70.0737 73.6929 73.5753 70.1912 75.295 65.7582C76.2593 63.1916 76.7763 60.4856 76.8313 57.7429C76.989 54.2156 77.0367 53.0972 77.0367 44.1396C77.0367 35.1819 77.0367 34.0452 76.8313 30.5362C76.7837 27.7569 76.2703 25.0032 75.2877 22.4072ZM70.8217 57.3579C70.796 59.4699 70.4146 61.5636 69.6813 63.5472C68.563 66.4329 66.286 68.7136 63.404 69.8209C61.4423 70.5506 59.3743 70.9319 57.2807 70.9612C53.7973 71.1226 52.8147 71.1629 43.8827 71.1629C34.9433 71.1629 34.0303 71.1629 30.481 70.9612C28.3947 70.9356 26.3193 70.5506 24.3613 69.8209C21.4683 68.7172 19.1767 66.4366 18.0583 63.5472C17.3397 61.5892 16.951 59.5176 16.918 57.4276C16.7603 53.9442 16.7237 52.9616 16.7237 44.0296C16.7237 35.0939 16.7237 34.1809 16.918 30.6279C16.9437 28.5159 17.325 26.4259 18.0583 24.4422C19.1767 21.5492 21.4683 19.2722 24.3613 18.1649C26.3193 17.4389 28.3947 17.0539 30.481 17.0246C33.968 16.8669 34.947 16.8229 43.8827 16.8229C52.8183 16.8229 53.735 16.8229 57.2807 17.0246C59.3743 17.0502 61.4423 17.4352 63.404 18.1649C66.286 19.2759 68.563 21.5566 69.6813 24.4422C70.4 26.4002 70.7887 28.4719 70.8217 30.5619C70.9793 34.0489 71.0196 35.0279 71.0196 43.9636C71.0196 52.8956 71.0197 53.8562 70.862 57.3616H70.8217V57.3579Z" fill="white"/>
</svg>
