<svg width="76" height="78" viewBox="0 0 76 78" fill="none" xmlns="http://www.w3.org/2000/svg">
<path fill-rule="evenodd" clip-rule="evenodd" d="M62.4796 33.5558L51.5476 30.6278C51.0347 30.4891 50.5976 30.1527 50.3322 29.6924C50.0668 29.232 49.9947 28.6852 50.1316 28.1718C50.2758 27.6634 50.6127 27.2313 51.0707 26.9675C51.5287 26.7038 52.0715 26.6293 52.5836 26.7598L58.8476 28.4398L48.1116 9.8398C47.0972 8.05645 45.6261 6.57545 43.8496 5.54906C42.0731 4.52267 40.0553 3.98792 38.0036 3.9998C35.9503 3.98745 33.9306 4.52188 32.1521 5.54822C30.3736 6.57455 28.9004 8.05579 27.8836 9.8398L24.7396 15.2718C24.6083 15.499 24.4335 15.6981 24.2253 15.8577C24.017 16.0174 23.7793 16.1344 23.5258 16.2022C23.0139 16.3391 22.4685 16.267 22.0096 16.0018C21.5508 15.7366 21.2161 15.3 21.0792 14.788C20.9423 14.276 21.0144 13.7306 21.2796 13.2718L24.4156 7.8318C25.7816 5.43873 27.7596 3.45213 30.1468 2.07581C32.5339 0.699481 35.2442 -0.0170236 37.9996 -0.000198656H38.0076C40.7621 -0.0153342 43.4709 0.702863 45.856 2.08065C48.2412 3.45845 50.2166 5.44619 51.5796 7.8398L62.3196 26.4398L63.9996 20.1758C64.1439 19.6689 64.4794 19.2379 64.9354 18.9737C65.3914 18.7095 65.9322 18.6328 66.4436 18.7598C66.6977 18.8272 66.936 18.944 67.1449 19.1035C67.3538 19.263 67.5292 19.4621 67.661 19.6895C67.7929 19.9168 67.8787 20.1679 67.9135 20.4285C67.9482 20.689 67.9313 20.9538 67.8636 21.2078L64.9356 32.1398C64.7196 32.9958 63.5236 33.8118 62.4796 33.5558ZM21.9996 69.9918H15.7236C12.9638 70.0082 10.2493 69.2895 7.85914 67.9096C5.46899 66.5296 3.48935 64.5381 2.12364 62.1398C0.728569 59.7597 -0.00683594 57.0507 -0.00683594 54.2918C-0.00683594 51.5329 0.728569 48.8239 2.12364 46.4438L12.8476 27.8718L6.57964 29.5518C6.0674 29.6855 5.5231 29.6124 5.06432 29.3482C4.60553 29.084 4.26909 28.65 4.12764 28.1398C3.99077 27.6269 4.06299 27.0806 4.32847 26.6209C4.59395 26.1612 5.03098 25.8256 5.54364 25.6878L16.4796 22.7598C16.9919 22.6261 17.5362 22.6992 17.995 22.9634C18.4537 23.2276 18.7902 23.6616 18.9316 24.1718L21.8636 35.1038C21.9759 35.6081 21.889 36.1363 21.6211 36.5781C21.3532 37.0199 20.925 37.3412 20.426 37.4748C19.9269 37.6085 19.3955 37.5443 18.9426 37.2955C18.4898 37.0467 18.1505 36.6327 17.9956 36.1398L16.3196 29.8758L5.58764 48.4398C4.55041 50.2142 4.00377 52.2325 4.00377 54.2878C4.00377 56.3431 4.55041 58.3614 5.58764 60.1358C6.60704 61.9228 8.08336 63.4065 9.86521 64.4349C11.6471 65.4632 13.6704 65.9992 15.7276 65.9878H21.9996C22.5301 65.9878 23.0388 66.1985 23.4139 66.5736C23.7889 66.9487 23.9996 67.4574 23.9996 67.9878C23.9996 68.5182 23.7889 69.0269 23.4139 69.402C23.0388 69.7771 22.5301 69.9918 21.9996 69.9918ZM41.9996 77.9878C41.7368 77.9887 41.4763 77.9376 41.2333 77.8373C40.9902 77.7371 40.7695 77.5898 40.5836 77.4038L32.5836 69.4038C32.2087 69.0287 31.9981 68.5201 31.9981 67.9898C31.9981 67.4595 32.2087 66.9509 32.5836 66.5758L40.5836 58.5758C40.9608 58.2115 41.466 58.0099 41.9904 58.0145C42.5148 58.019 43.0165 58.2294 43.3873 58.6002C43.7581 58.971 43.9684 59.4726 43.973 59.997C43.9775 60.5214 43.776 61.0266 43.4116 61.4038L38.8276 65.9878H60.2676C62.3247 66.001 64.3482 65.4657 66.1297 64.4372C67.9112 63.4086 69.3865 61.9239 70.4036 60.1358C71.4429 58.3621 71.9907 56.3435 71.9907 54.2878C71.9907 52.2321 71.4429 50.2135 70.4036 48.4398L67.2676 43.0078C67.1363 42.7803 67.0511 42.5293 67.0168 42.2689C66.9825 42.0085 66.9999 41.7439 67.0678 41.4902C67.1358 41.2365 67.2531 40.9987 67.413 40.7903C67.5728 40.582 67.7722 40.4071 67.9996 40.2758C68.2271 40.1445 68.4782 40.0592 68.7386 40.025C68.999 39.9907 69.2635 40.008 69.5172 40.076C69.7709 40.144 70.0088 40.2612 70.2171 40.4211C70.4255 40.581 70.6003 40.7803 70.7316 41.0078L73.8676 46.4398C76.7076 51.3518 76.7076 57.2198 73.8716 62.1358C72.5053 64.5336 70.5255 66.5246 68.1355 67.9045C65.7455 69.2843 63.0313 70.0034 60.2716 69.9878H38.8316L43.4116 74.5758C43.6924 74.8547 43.8839 75.2109 43.9618 75.5989C44.0397 75.9869 44.0005 76.3893 43.8492 76.755C43.6979 77.1207 43.4412 77.4332 43.1119 77.6527C42.7826 77.8722 42.3954 77.9888 41.9996 77.9878Z" fill="black"/>
</svg>
