<svg width="96" height="96" viewBox="0 0 96 96" fill="none" xmlns="http://www.w3.org/2000/svg">
<path d="M95.4409 25.0225C95.2017 24.7867 94.9036 24.6195 94.5776 24.5383C94.2517 24.4571 93.9099 24.465 93.5881 24.5611L62.0144 33.9848L71.4384 2.41122C71.5345 2.08937 71.5424 1.74761 71.4612 1.42168C71.38 1.09575 71.2127 0.797637 70.9768 0.558523C70.7409 0.319406 70.4452 0.148004 70.1204 0.0622181C69.7957 -0.0235682 69.4539 -0.0205928 69.1307 0.0708335L60.9447 2.38947C60.6819 2.4639 60.4384 2.59491 60.2315 2.7733C60.0246 2.9517 59.8592 3.17318 59.7468 3.42222L43.4513 39.5253L26.8251 44.4877C22.9541 39.8868 16.7053 37.9756 10.8545 39.7224C2.82402 42.1194 -1.75944 50.6027 0.637384 58.6333C2.60314 65.2195 8.66279 69.487 15.2092 69.487C16.6788 69.4864 18.1406 69.272 19.5485 68.8506C25.1627 67.1749 29.2481 62.4653 30.1952 56.8042L38.391 57.6084L39.1952 65.8041C33.5342 66.751 28.8244 70.8364 27.1485 76.4508C24.7517 84.4814 29.3353 92.9649 37.3658 95.3617C38.7779 95.7843 40.244 95.9993 41.718 96.0001C44.9226 96.0001 48.1171 94.9509 50.7132 93.0459C53.3982 91.0756 55.3222 88.3434 56.2769 85.1446C58.0231 79.2938 56.1123 73.045 51.5114 69.174L56.4738 52.548L92.5772 36.2525C92.8263 36.1401 93.0477 35.9747 93.226 35.7677C93.4044 35.5608 93.5354 35.3174 93.6098 35.0545L95.9284 26.8688C96.02 26.5456 96.0231 26.2037 95.9373 25.8789C95.8516 25.5541 95.6802 25.2584 95.4409 25.0225ZM38.0432 51.507C37.9082 51.8059 37.854 52.1349 37.8861 52.4613L38.0177 53.8035L28.704 52.89C28.4491 52.8649 28.1917 52.8923 27.9478 52.9705C27.7039 53.0487 27.4786 53.1761 27.2859 53.3447C27.0931 53.5134 26.937 53.7198 26.8271 53.9512C26.7172 54.1826 26.6559 54.434 26.6469 54.69C26.4742 59.6034 23.1905 63.8501 18.476 65.2571C12.4261 67.0626 6.03609 63.6098 4.23065 57.5608C2.42539 51.5115 5.87784 45.1213 11.9272 43.3156C16.6691 41.9002 21.7573 43.673 24.5885 47.7268C24.8143 48.0499 25.1362 48.2936 25.5084 48.4233C25.8806 48.5531 26.2842 48.5623 26.6619 48.4496L41.41 44.0476L38.0432 51.507ZM47.5493 69.3372C47.4366 69.7149 47.4458 70.1185 47.5756 70.4907C47.7054 70.8628 47.9492 71.1846 48.2723 71.4104C50.2474 72.7873 51.7373 74.7528 52.5294 77.0264C53.3216 79.3001 53.3755 81.7658 52.6837 84.0719C51.2465 88.8869 46.7373 92.2499 41.718 92.2499C40.6127 92.2499 39.5093 92.0878 38.4383 91.7682C32.3891 89.9628 28.9365 83.5724 30.7419 77.5231C32.1491 72.8084 36.3958 69.5247 41.3093 69.352C41.5653 69.343 41.8167 69.2817 42.048 69.1718C42.2794 69.0619 42.4858 68.9057 42.6544 68.713C42.8342 68.5068 42.9665 68.2637 43.0422 68.0008C43.0701 67.9463 43.0953 67.8904 43.1179 67.8334L47.5971 56.307C47.9721 55.3417 47.4938 54.2554 46.5286 53.8802C45.5631 53.5046 44.4767 53.9835 44.1017 54.9487L42.3424 59.4759L41.6672 52.5933L62.8061 5.75961L66.869 4.60873L47.5493 69.3372ZM90.2395 33.1932L57.893 47.7931L60.7321 38.281L91.3904 29.1306L90.2395 33.1932Z" fill="black"/>
</svg>
